<svg id="uepaPay" xmlns="http://www.w3.org/2000/svg" viewBox="0 0 860.91 244.82"><defs><style>.cls-1{fill:#601079;}.cls-2{fill:#fff;}.cls-3{fill:#ff3c02;}</style></defs><title>uepa_Pay</title><g id="Pay"><path class="cls-1" d="M719.43,258.64H596.17a28.8,28.8,0,0,1-6.67-.48,21.91,21.91,0,0,1-17.39-20.81c-.05-1.11,0-2.23,0-3.35q0-72.17,0-144.33a32.48,32.48,0,0,1,.63-7.61,21.84,21.84,0,0,1,20.58-17c1.27-.05,2.55,0,3.83,0H842.69a31.75,31.75,0,0,1,8.56.79,21.86,21.86,0,0,1,16.15,19.8c.07,1.28,0,2.56,0,3.84q0,72.4,0,144.8a30.55,30.55,0,0,1-.58,7.62,21.88,21.88,0,0,1-20.79,16.79c-1.44,0-2.88,0-4.32,0Zm40.77-44.23c-1.27,3.87-1.05,7.61-1.82,11.19a1.55,1.55,0,0,0,1.13,1.85,22.86,22.86,0,0,0,2.27.7,66.23,66.23,0,0,0,21.86,2,43.48,43.48,0,0,0,14-3,24.24,24.24,0,0,0,13.37-13,35.69,35.69,0,0,0,2.79-9.63q1.9-14.23,3.7-28.51,2.29-18.3,4.53-36.62c.18-1.43.37-2.86.42-4.29s.82-3,.23-4.89c-4.3,0-8.44,0-12.57,0-1.54,0-1.83.36-2,2q-1.5,12.14-3,24.26c-.92,7.45-1.91,14.89-2.77,22.35A3.54,3.54,0,0,1,800,182.1a31.53,31.53,0,0,1-10.14,2.68,30.06,30.06,0,0,1-6.22-.07c-4.12-.54-6.26-3-6.38-7.07a28.13,28.13,0,0,1,.26-4.3q2.15-17.35,4.35-34.71c.27-2.22.54-4.44.78-6.67.14-1.26-.26-1.76-1.57-1.78-3.83,0-7.67,0-11.51,0a1.56,1.56,0,0,0-1.68,1.36c-.07.47-.13,1-.19,1.43q-2.7,22.11-5.39,44.23a28.13,28.13,0,0,0-.16,5.27c.48,7.52,4.26,12.06,11.56,14a37.22,37.22,0,0,0,15.69.34c3.63-.59,7-2.1,10.51-3.21.32,4.14-.8,12-2.08,15.15a12.94,12.94,0,0,1-7.22,7.29,19.14,19.14,0,0,1-6,1.49,49.27,49.27,0,0,1-14.79-.81C766.73,216,763.65,215.24,760.2,214.41ZM648,159c5.26,0,10.53.13,15.73-1,11.15-2.43,19.59-8.3,24.2-19a38.9,38.9,0,0,0,3-18.24c-.79-11.79-7.43-18.47-16.26-21.39a44.75,44.75,0,0,0-14.15-2H632.72c-1,0-1.92,0-2.87.09a1.3,1.3,0,0,0-1.3,1.14c-.2,1.1-.43,2.19-.57,3.3q-2.1,17.1-4.17,34.2-1.72,14-3.46,28-1.61,13.06-3.2,26.13c-.15,1.26-.26,2.54-.32,3.81s.41,1.87,1.57,1.89c3.67.06,7.34.08,11,0,1.49,0,1.85-.4,2.06-2q1-7.59,1.88-15.2c.7-5.86,1.38-11.72,2.09-17.58.23-1.83.56-2.15,2.45-2.18C641.24,158.93,644.59,159,648,159Zm87.61,32.47c.17.25.45.49.5.78.61,3.39,2.77,4.3,5.9,3.82.94-.15,1.92,0,2.87-.11a1.62,1.62,0,0,0,1.56-1.53c.39-3.17.75-6.34,1.14-9.51q1.68-13.78,3.38-27.58,1.56-12.59,3.1-25.19c.16-1.36-.21-1.84-1.44-1.92-1-.06-1.91-.05-2.87,0-4.52.07-4.07-.56-6.31,3.6a6.6,6.6,0,0,1-.93,1.05c-1.25-.08-2-1-2.94-1.53-8.44-5-17.42-5.9-26.8-3.48a23.45,23.45,0,0,0-13.7,9.84,37.12,37.12,0,0,0-4.28,8.54A69.06,69.06,0,0,0,691.11,166c-.45,5.42-.58,10.85.76,16.21,1.81,7.27,6,13.89,17.52,15.09a37.67,37.67,0,0,0,23.1-4.64C733.44,192.06,734.32,191.27,735.56,191.43Z" transform="translate(-6.54 -15.07)"/><path class="cls-1" d="M800.3,50c-4.61.75-128.7,1.07-155.59.36,2.21-.74,3.55-1.3,4.95-1.65q54.95-13.92,109.92-27.8,10.2-2.58,20.42-5.11a19.31,19.31,0,0,1,3.75-.68,10.23,10.23,0,0,1,10.15,6.56,12.38,12.38,0,0,1,.6,1.81q2.91,12.09,5.79,24.2A3,3,0,0,1,800.3,50Z" transform="translate(-6.54 -15.07)"/><path id="y" class="cls-2" d="M760.2,214.41c3.45.83,6.53,1.59,9.62,2.31a49.27,49.27,0,0,0,14.79.81,19.14,19.14,0,0,0,6-1.49,12.94,12.94,0,0,0,7.22-7.29c1.28-3.11,2.4-11,2.08-15.15-3.51,1.11-6.88,2.62-10.51,3.21a37.22,37.22,0,0,1-15.69-.34c-7.3-1.94-11.08-6.48-11.56-14a28.13,28.13,0,0,1,.16-5.27Q765,155.07,767.72,133c.06-.48.12-1,.19-1.43a1.56,1.56,0,0,1,1.68-1.36c3.84,0,7.68,0,11.51,0,1.31,0,1.71.52,1.57,1.78-.24,2.23-.51,4.45-.78,6.67q-2.17,17.35-4.35,34.71a28.13,28.13,0,0,0-.26,4.3c.12,4.08,2.26,6.53,6.38,7.07a30.06,30.06,0,0,0,6.22.07A31.53,31.53,0,0,0,800,182.1a3.54,3.54,0,0,0,2.28-3.27c.86-7.46,1.85-14.9,2.77-22.35q1.5-12.14,3-24.26c.21-1.68.5-2,2-2,4.13-.05,8.27,0,12.57,0,.59,1.85-.17,3.37-.23,4.89s-.24,2.86-.42,4.29q-2.25,18.32-4.53,36.62-1.8,14.26-3.7,28.51a35.69,35.69,0,0,1-2.79,9.63,24.24,24.24,0,0,1-13.37,13,43.48,43.48,0,0,1-14,3,66.23,66.23,0,0,1-21.86-2,22.86,22.86,0,0,1-2.27-.7,1.55,1.55,0,0,1-1.13-1.85C759.15,222,758.93,218.28,760.2,214.41Z" transform="translate(-6.54 -15.07)"/><path id="a" class="cls-2" d="M735.56,191.43c-1.24-.16-2.12.63-3.07,1.18a37.67,37.67,0,0,1-23.1,4.64c-11.47-1.2-15.71-7.82-17.52-15.09-1.34-5.36-1.21-10.79-.76-16.21a69.06,69.06,0,0,1,3.63-17.78,37.12,37.12,0,0,1,4.28-8.54,23.45,23.45,0,0,1,13.7-9.84c9.38-2.42,18.36-1.54,26.8,3.48.93.56,1.69,1.45,2.94,1.53a6.6,6.6,0,0,0,.93-1.05c2.24-4.16,1.79-3.53,6.31-3.6,1,0,1.92,0,2.87,0,1.23.08,1.6.56,1.44,1.92q-1.53,12.6-3.1,25.19-1.7,13.8-3.38,27.58c-.39,3.17-.75,6.34-1.14,9.51a1.62,1.62,0,0,1-1.56,1.53c-1,.09-1.93,0-2.87.11-3.13.48-5.29-.43-5.9-3.82C736,191.92,735.73,191.68,735.56,191.43ZM706,168a27.47,27.47,0,0,0,.26,7.5c.87,5.56,4.32,8.85,9.87,9.36A29,29,0,0,0,731,182.19a3.62,3.62,0,0,0,2.35-3.22c.83-7.11,1.78-14.22,2.66-21.33.41-3.32.82-6.64,1.15-10,.28-2.94.18-3-2.56-4.3a24.21,24.21,0,0,0-7.33-2c-10.1-1.3-16.19,2.59-19.08,12.34A57,57,0,0,0,706,168Z" transform="translate(-6.54 -15.07)"/><path id="P" class="cls-2" d="M648,159c-3.36,0-6.71,0-10.06,0-1.89,0-2.22.35-2.45,2.18-.71,5.86-1.39,11.72-2.09,17.58q-.92,7.61-1.88,15.2c-.21,1.64-.57,2-2.06,2-3.67.05-7.34,0-11,0-1.16,0-1.64-.64-1.57-1.89s.17-2.55.32-3.81q1.59-13.06,3.2-26.13,1.73-14,3.46-28,2.09-17.1,4.17-34.2c.14-1.11.37-2.2.57-3.3a1.3,1.3,0,0,1,1.3-1.14c.95-.07,1.91-.09,2.87-.09H660.5a44.75,44.75,0,0,1,14.15,2c8.83,2.92,15.47,9.6,16.26,21.39a38.9,38.9,0,0,1-3,18.24c-4.61,10.69-13,16.56-24.2,19C658.48,159.09,653.21,159,648,159Zm-10.31-13.89c3.23.49,18.62.67,21.22.25,6.84-1.1,11.81-4.59,14.31-11.23a24.68,24.68,0,0,0,1.43-11.78c-.63-5.24-3.39-8.83-8.53-10.47a18.76,18.76,0,0,0-5.65-.91h-7.68c-3,0-6.07,0-9.11,0-1.52,0-2,.46-2.25,1.89-.09.47-.13,1-.19,1.43-1,7.77-1.91,15.53-2.83,23.3C638.07,140.07,637.88,142.58,637.64,145.07Z" transform="translate(-6.54 -15.07)"/><path class="cls-1" d="M637.64,145.07c.24-2.49.43-5,.72-7.5.92-7.77,1.88-15.53,2.83-23.3.06-.48.1-1,.19-1.43.28-1.43.73-1.87,2.25-1.89,3,0,6.08,0,9.11,0h7.68a18.76,18.76,0,0,1,5.65.91c5.14,1.64,7.9,5.23,8.53,10.47a24.68,24.68,0,0,1-1.43,11.78c-2.5,6.64-7.47,10.13-14.31,11.23C656.26,145.74,640.87,145.56,637.64,145.07Z" transform="translate(-6.54 -15.07)"/><path class="cls-1" d="M706,168a57,57,0,0,1,2.2-14.25c2.89-9.75,9-13.64,19.08-12.34a24.21,24.21,0,0,1,7.33,2c2.74,1.29,2.84,1.36,2.56,4.3-.33,3.32-.74,6.64-1.15,10-.88,7.11-1.83,14.22-2.66,21.33a3.62,3.62,0,0,1-2.35,3.22,29,29,0,0,1-14.88,2.62c-5.55-.51-9-3.8-9.87-9.36A27.47,27.47,0,0,1,706,168Z" transform="translate(-6.54 -15.07)"/></g><g id="uepa"><path id="a-2" data-name="a" class="cls-3" d="M487.72,113.59c0-2.84,0-5.67,0-8.51,0-1.86.39-2.17,2.27-2.28.64,0,1.28,0,1.92,0q13.43,0,26.85,0c4.46,0,4.33,0,4.31,4.09,0,.48,0,1,0,1.44q0,53.43,0,106.88c0,6.06.77,5.43-5.26,5.45-8.31,0-16.62,0-24.93,0-1.12,0-2.24,0-3.36,0s-1.78-.54-1.78-1.74c0-2.24,0-4.47,0-6.71,0-.9-.11-1.79-.16-2.47-.66-.39-.85-.25-1.09.09-4.95,7.25-12.07,11.33-20.38,13.3-24.3,5.77-53.48-3.33-66.16-32.12-8.25-18.71-8.69-37.89-.68-56.78s22.81-30.35,43-34.46a51.55,51.55,0,0,1,23.75.63,36.69,36.69,0,0,1,19.29,11.79c.5.59,1,1.15,1.52,1.73Zm-29.55,18.24c-10.81-.16-17.84,4.67-21.86,9.86-6.3,8.14-8.9,17.3-6.21,27.41,3.07,11.51,10.07,19.36,22.07,22.07a30.86,30.86,0,0,0,8.58.42c9.78-.53,17.34-4.92,22.42-13.33a32.93,32.93,0,0,0,4.62-17.33C487.8,148,478.43,131.58,458.17,131.83Z" transform="translate(-6.54 -15.07)"/><path id="p-2" data-name="p" class="cls-3" d="M295.73,210.46v5.71q0,19.43,0,38.84c0,1.27,0,2.55-.11,3.82a1,1,0,0,1-.92.93,13.28,13.28,0,0,1-1.9.13H263.55a15.34,15.34,0,0,1-1.92-.1,1.27,1.27,0,0,1-1.2-1.24c-.06-1.11-.06-2.23-.06-3.35V107.53c0-4.76-.43-4.77,4.64-4.75q12,0,24,0c.8,0,1.6,0,2.39,0,1.91.09,2.26.4,2.3,2.23.05,2.24,0,4.47,0,6.71a15.82,15.82,0,0,0,.11,2.39.65.65,0,0,0,1,.5,7.68,7.68,0,0,0,1.4-1.28c10.53-11.45,23.89-15.39,39-14.5a56.89,56.89,0,0,1,12.26,2c12.87,3.69,22.74,11.33,29.94,22.52a70.67,70.67,0,0,1,9.91,25.77,69.38,69.38,0,0,1-2.54,36.39c-5.48,15.43-15.22,27.27-30.31,34.14a55.15,55.15,0,0,1-39.73,2.58,40.46,40.46,0,0,1-15-8.28C298.7,213.08,297.63,212.13,295.73,210.46ZM324,191.65c17.59.22,29.19-14.51,29.3-29.71.08-13.28-9.64-30.1-29.42-30.17-18.47-.07-29.5,15.31-29.5,30C294.33,177.92,306.86,192.14,324,191.65Z" transform="translate(-6.54 -15.07)"/><path id="e" class="cls-3" d="M161.13,172.44a23.29,23.29,0,0,0,5.76,13.06,26.57,26.57,0,0,0,17.51,8.9,44,44,0,0,0,6.7.11A21.87,21.87,0,0,0,205,188.87a13.81,13.81,0,0,0,2.7-2.7c1.43-2.19,3.41-2.48,5.79-2.45,6.71.11,13.42,0,20.13,0,3.2,0,6.4,0,9.59,0,.74,0,1.49.15,2.11.21.11.44.23.63.18.75-7.14,16.34-18.35,29-35.12,35.45-22.26,8.6-43.14,4.81-61.58-10.1-15.62-12.62-23.18-29.53-22.73-49.57.61-27.45,18.6-51.4,43.89-59.08,31.63-9.61,67.4,6.55,77.64,43a62.82,62.82,0,0,1,2,26.09c-.24,1.62-.49,1.84-2.15,1.92-1.28.05-2.56,0-3.84,0H161.13Zm52.93-24.26c-.78-10.72-12.75-19.76-26.08-19.71s-25.27,9.22-25.91,19.78C166.83,148.7,210.43,148.64,214.06,148.18Z" transform="translate(-6.54 -15.07)"/><path id="u" class="cls-3" d="M82.66,209.71c-1.23-.14-1.41.61-1.69,1.08-4.7,7.87-11.92,12-20.7,13.13-9,1.19-17.86.7-26.45-2.56-14-5.3-22.07-15.76-25.89-29.85a36.32,36.32,0,0,1-1.17-9c0-3-.21-6.07-.21-9.11q0-32.83,0-65.67c0-1.12,0-2.24,0-3.35a1.48,1.48,0,0,1,1.48-1.54c.8,0,1.6,0,2.4,0H37.8c.8,0,1.6,0,2.4,0a1.48,1.48,0,0,1,1.54,1.48c.07,1.43.07,2.87.07,4.31q0,29.24,0,58.48c0,2.87.18,5.75.45,8.61a22.65,22.65,0,0,0,1,4.66,14.65,14.65,0,0,0,10.92,10.36,24.31,24.31,0,0,0,9.51.63c9.34-1.29,13.7-6.34,15.89-13.83a36.61,36.61,0,0,0,1.2-10.44q0-21.57,0-43.14c0-6.07,0-12.15,0-18.22,0-2.69.18-2.92,2.56-2.93,10.07,0,20.14,0,30.21,0a7.73,7.73,0,0,1,1,.06c.89.08,1.52.5,1.57,1.45.06,1.11,0,2.23,0,3.35V216c0,.64,0,1.28,0,1.92-.07,2.53-.17,2.7-2.75,2.71q-14.14,0-28.29,0c-2.18,0-2.38-.27-2.42-2.54C82.65,215.27,82.71,212.46,82.66,209.71Z" transform="translate(-6.54 -15.07)"/></g></svg>